
			<svg version="1.0" xmlns="http://www.w3.org/2000/svg"
			width="405.000000pt" height="402.000000pt" viewBox="0 0 405.000000 402.000000"
			preserveAspectRatio="xMidYMid meet">
		   <g transform="translate(0.000000,402.000000) scale(0.100000,-0.100000)"
		   fill="#000000" stroke="none">
		   <path d="M1808 3775 c-332 -45 -651 -188 -917 -410 -292 -243 -511 -610 -590
		   -990 -36 -171 -51 -400 -33 -499 l7 -38 60 88 c110 163 224 268 378 349 271
		   143 598 149 880 17 119 -56 199 -113 292 -206 123 -124 207 -271 257 -454 21
		   -74 22 -104 27 -677 6 -644 5 -630 57 -676 55 -48 164 -65 222 -35 37 19 78
		   65 93 101 8 23 11 335 9 1261 -1 1116 0 1237 15 1295 76 292 370 460 664 379
		   40 -12 76 -18 80 -14 11 12 -152 155 -258 226 -171 114 -339 189 -546 243
		   -205 53 -483 69 -697 40z"/>
		   <path d="M2945 2964 c-45 -23 -76 -55 -96 -99 -17 -37 -19 -76 -19 -582 l0
		   -543 235 0 c256 0 272 -3 314 -56 28 -36 43 -96 35 -141 -9 -47 -66 -110 -112
		   -123 -21 -5 -133 -10 -249 -10 l-213 0 0 -505 0 -505 58 29 c32 16 99 56 148
		   90 418 279 693 746 755 1281 25 222 -2 517 -67 714 -46 139 -144 346 -165 346
		   -4 0 -3 -17 2 -37 5 -21 9 -65 9 -99 0 -57 -2 -63 -37 -97 -44 -45 -96 -61
		   -153 -48 -88 20 -119 61 -151 199 -17 78 -27 101 -57 134 -19 22 -48 46 -63
		   54 -37 19 -136 18 -174 -2z"/>
		   <path d="M1090 2059 c-233 -23 -449 -181 -541 -397 -51 -117 -66 -314 -34
		   -437 49 -191 182 -355 355 -438 112 -54 178 -69 304 -68 272 0 500 144 611
		   386 47 101 60 165 60 290 -1 187 -64 342 -190 470 -147 150 -341 216 -565 194z"/>
		   <path d="M1781 600 c-119 -89 -247 -148 -415 -190 l-109 -27 69 -32 c200 -94
		   544 -175 544 -129 0 21 -31 403 -33 411 -1 4 -26 -11 -56 -33z"/>
		   </g>
		   </svg>
